<svg xmlns="http://www.w3.org/2000/svg" id="svg">
    <symbol id="star" viewBox="0 0 19.481 19.481">
        <path d="M10.201.758l2.478 5.865 6.344.545a.5.5 0 0 1 .285.876l-4.812 4.169 1.442 6.202a.5.5 0 0 1-.745.541l-5.452-3.288-5.452 3.288a.5.5 0 0 1-.745-.541l1.442-6.202-4.813-4.17a.5.5 0 0 1 .285-.876l6.344-.545L9.28.758a.5.5 0 0 1 .921 0z"/>
    </symbol>
    <symbol id="back" viewBox="0 0 477.175 477.175">
        <path d="M145.188 238.575l215.5-215.5c5.3-5.3 5.3-13.8 0-19.1s-13.8-5.3-19.1 0l-225.1 225.1c-5.3 5.3-5.3 13.8 0 19.1l225.1 225c2.6 2.6 6.1 4 9.5 4s6.9-1.3 9.5-4c5.3-5.3 5.3-13.8 0-19.1l-215.4-215.5z"/>
    </symbol>
    <symbol id="close" viewBox="0 0 47.971 47.971">
        <path d="M28.228 23.986L47.092 5.122a2.998 2.998 0 0 0 0-4.242 2.998 2.998 0 0 0-4.242 0L23.986 19.744 5.121.88a2.998 2.998 0 0 0-4.242 0 2.998 2.998 0 0 0 0 4.242l18.865 18.864L.879 42.85a2.998 2.998 0 1 0 4.242 4.241l18.865-18.864L42.85 47.091c.586.586 1.354.879 2.121.879s1.535-.293 2.121-.879a2.998 2.998 0 0 0 0-4.242L28.228 23.986z"/>
    </symbol>
    <symbol id="next" viewBox="0 0 477.175 477.175">
        <path d="M360.731 229.075l-225.1-225.1c-5.3-5.3-13.8-5.3-19.1 0s-5.3 13.8 0 19.1l215.5 215.5-215.5 215.5c-5.3 5.3-5.3 13.8 0 19.1 2.6 2.6 6.1 4 9.5 4 3.4 0 6.9-1.3 9.5-4l225.1-225.1c5.3-5.2 5.3-13.8.1-19z"/>
    </symbol>
</svg>